<svg width="16" height="17" viewBox="0 0 16 17" fill="none" xmlns="http://www.w3.org/2000/svg">
<circle cx="7.31255" cy="8.75085" r="7.31255" fill="#D9D9D9"/>
<path d="M14.6251 8.75085C14.6251 10.2951 14.1362 11.7997 13.2285 13.0491L7.31255 8.75085H14.6251Z" fill="#DA127D"/>
<path d="M9.57225 15.7055C8.10357 16.1827 6.52152 16.1827 5.05285 15.7055L7.31255 8.75085L9.57225 15.7055Z" fill="#DA127D"/>
<path d="M1.39657 13.0491C0.48888 11.7997 -1.35003e-07 10.2951 0 8.75085L7.31255 8.75085L1.39657 13.0491Z" fill="#DA127D"/>
<path d="M1.39657 4.45264C2.30426 3.20331 3.58417 2.2734 5.05284 1.7962L7.31255 8.75085L1.39657 4.45264Z" fill="#DA127D"/>
<path d="M9.57225 1.7962C11.0409 2.2734 12.3208 3.20331 13.2285 4.45264L7.31255 8.75085L9.57225 1.7962Z" fill="#DA127D"/>
<path d="M13.2285 13.0491C12.3208 14.2984 11.0409 15.2283 9.57225 15.7055L7.31255 8.75085L13.2285 13.0491Z" fill="#FF8CBA"/>
<path d="M5.05285 15.7055C3.58417 15.2283 2.30426 14.2984 1.39657 13.0491L7.31255 8.75085L5.05285 15.7055Z" fill="#FF8CBA"/>
<path d="M0 8.75085C1.35003e-07 7.20659 0.48888 5.70197 1.39657 4.45264L7.31255 8.75085L0 8.75085Z" fill="#FF8CBA"/>
<path d="M5.05284 1.7962C6.52152 1.319 8.10357 1.319 9.57225 1.7962L7.31255 8.75085L5.05284 1.7962Z" fill="#FF8CBA"/>
<path d="M13.2285 4.45264C14.1362 5.70198 14.6251 7.20659 14.6251 8.75085L7.31255 8.75085L13.2285 4.45264Z" fill="#FF8CBA"/>
<rect x="8.00677" y="8.28771" width="5.45234" height="0.457034" transform="rotate(-22.5 8.00677 8.28771)" fill="#4D5860"/>
<path d="M12.7817 5.56783L12.6871 6.59642L15.1317 5.58384L15.2263 4.55525L12.7817 5.56783Z" fill="#DBDBE6"/>
<path d="M13.4927 7.25209L12.6871 6.59642L15.1943 5.55788L16 6.21355L13.4927 7.25209Z" fill="#B6BBC8"/>
<path d="M7.2053 8.86704L7.74444 7.65434L8.44403 9.34332L7.2053 8.86704Z" fill="#B6BBC8"/>
<ellipse cx="7.35346" cy="8.80568" rx="0.160363" ry="0.228517" transform="rotate(-22.5 7.35346 8.80568)" fill="#8691A2"/>
<rect x="7.79211" y="7.93941" width="5.45234" height="0.457034" transform="rotate(-45 7.79211 7.93941)" fill="#4D5860"/>
<path d="M11.1627 3.59926L11.4689 4.58579L13.3399 2.71479L13.0337 1.72827L11.1627 3.59926Z" fill="#DBDBE6"/>
<path d="M12.4641 4.88323L11.4689 4.58579L13.3879 2.66682L14.3831 2.96426L12.4641 4.88323Z" fill="#B6BBC8"/>
<path d="M7.27333 8.78135L7.30735 7.45465L8.60003 8.74734L7.27333 8.78135Z" fill="#B6BBC8"/>
<ellipse cx="7.38673" cy="8.66796" rx="0.160363" ry="0.228517" transform="rotate(-45 7.38673 8.66796)" fill="#8691A2"/>
<rect x="7.40005" y="7.81831" width="5.45234" height="0.457034" transform="rotate(-67.5 7.40005 7.81831)" fill="#4D5860"/>
<path d="M8.8532 2.51865L9.51359 3.31292L10.5262 0.868345L9.86578 0.074078L8.8532 2.51865Z" fill="#DBDBE6"/>
<path d="M10.5469 3.20685L9.51357 3.31291L10.5521 0.805659L11.5854 0.699593L10.5469 3.20685Z" fill="#B6BBC8"/>
<path d="M7.24296 8.79469L6.76668 7.55596L8.45566 8.25555L7.24296 8.79469Z" fill="#B6BBC8"/>
<ellipse cx="7.30432" cy="8.64654" rx="0.160363" ry="0.228517" transform="rotate(-67.5 7.30432 8.64654)" fill="#8691A2"/>
</svg>
